<?xml version="1.0" standalone="no"?>
<!DOCTYPE svg PUBLIC "-//W3C//DTD SVG 20010904//EN"
 "http://www.w3.org/TR/2001/REC-SVG-20010904/DTD/svg10.dtd">
<svg version="1.0" xmlns="http://www.w3.org/2000/svg"
 width="5953.000000pt" height="5953.000000pt" viewBox="0 0 5953.000000 5953.000000"
 preserveAspectRatio="xMidYMid meet">

<g transform="translate(0.000000,5953.000000) scale(0.100000,-0.100000)"
fill="#000000" stroke="none">
<path d="M30835 59434 c-578 -883 -965 -1548 -1360 -2336 -873 -1738 -1540
-3515 -2065 -5508 -536 -2029 -957 -4290 -1184 -6355 -34 -304 -186 -1879
-186 -1914 1 -14 2 -14 9 -1 5 8 139 335 299 725 698 1709 1088 2602 1678
3840 187 394 742 1501 969 1935 510 974 690 1345 976 2013 443 1033 813 2087
1145 3262 l67 240 5 505 c8 891 -37 1749 -134 2580 -31 268 -142 1058 -153
1084 -6 16 -17 5 -66 -70z m-36 -1609 c113 -674 204 -1381 299 -2305 l18 -175
-44 -140 c-321 -1035 -735 -2129 -1165 -3085 -325 -722 -518 -1099 -1072
-2095 -501 -900 -694 -1260 -1048 -1950 -290 -566 -712 -1435 -977 -2012 -46
-100 -85 -181 -87 -180 -4 5 71 485 141 899 343 2022 842 4013 1518 6058 715
2161 1405 3845 2206 5379 l106 203 28 -148 c15 -82 50 -284 77 -449z"/>
<path d="M30871 53629 c-596 -1707 -669 -1910 -906 -2509 -440 -1110 -826
-1925 -1435 -3025 -815 -1473 -1344 -2553 -2106 -4303 -297 -682 -302 -693
-313 -818 -33 -353 -75 -1113 -92 -1669 -13 -415 -7 -1678 10 -2020 77 -1557
221 -2639 547 -4082 49 -216 91 -393 95 -393 11 0 639 1060 797 1345 1079
1952 1836 4120 2602 7445 472 2052 929 4621 1110 6249 63 571 87 853 131 1566
14 214 24 3175 12 3364 l-8 123 -444 -1273z"/>
<path d="M29690 34898 c-55 -19 -134 -104 -148 -160 -9 -34 -12 -260 -12 -826
l0 -779 -81 -7 c-183 -15 -435 -69 -643 -137 -66 -22 -120 -38 -121 -37 -1 2
-93 226 -205 498 -227 548 -237 568 -307 557 -20 -4 -46 -16 -59 -28 -50 -47
-50 -48 171 -579 113 -272 208 -503 211 -512 4 -14 -17 -28 -104 -72 -193 -97
-347 -195 -521 -334 l-93 -74 -567 565 c-610 609 -590 591 -696 590 -162 -1
-271 -182 -198 -328 8 -16 267 -283 575 -591 l561 -562 -65 -79 c-130 -160
-253 -351 -350 -545 l-53 -106 -505 209 c-310 128 -518 209 -538 209 -47 0
-92 -46 -92 -94 0 -70 14 -77 557 -301 l501 -207 -29 -86 c-66 -192 -128 -469
-144 -637 -3 -38 -9 -82 -11 -97 l-6 -28 -799 0 c-902 0 -835 6 -912 -79 -101
-112 -65 -277 78 -354 40 -22 42 -22 837 -25 l798 -3 4 -22 c3 -12 8 -53 11
-92 16 -167 75 -434 139 -623 l35 -103 -32 -14 c-18 -7 -246 -101 -507 -209
-331 -137 -482 -204 -497 -222 -31 -34 -30 -84 2 -122 49 -59 39 -62 582 164
274 114 506 209 515 211 13 4 23 -6 38 -41 61 -144 241 -430 370 -590 l72 -89
-560 -561 c-308 -309 -567 -575 -575 -591 -68 -137 19 -301 175 -330 23 -4 57
-1 95 10 57 16 63 22 624 582 l566 565 89 -72 c135 -108 328 -233 492 -318
l148 -77 -168 -405 c-281 -678 -261 -623 -244 -663 27 -67 101 -88 151 -44 18
16 83 162 232 522 113 275 209 503 212 507 3 4 44 -7 91 -23 182 -65 490 -132
671 -146 l79 -6 0 -779 c0 -561 3 -792 12 -826 8 -33 26 -60 62 -98 74 -76
157 -94 246 -53 53 24 83 50 113 99 l22 35 5 810 5 809 115 13 c215 24 493 87
659 149 35 13 66 22 69 19 3 -3 99 -230 213 -506 115 -276 216 -510 225 -520
25 -27 76 -34 112 -15 38 20 52 44 52 88 -1 20 -84 234 -209 533 l-207 500
139 72 c164 86 331 194 481 311 l108 85 562 -561 c308 -308 577 -568 596 -578
50 -25 144 -23 196 4 47 24 90 71 111 119 18 44 16 137 -4 181 -10 23 -224
245 -576 599 l-560 561 70 89 c135 170 226 312 332 514 l66 125 500 -207 c341
-142 512 -208 538 -209 43 0 82 31 93 75 9 36 -18 90 -53 108 -15 8 -244 104
-508 212 -264 109 -483 201 -487 204 -4 3 12 67 36 141 66 203 136 547 136
667 l0 32 798 3 c743 3 800 4 837 21 156 70 190 275 63 382 -68 57 -32 55
-898 55 l-800 0 0 38 c0 124 -69 464 -136 672 -24 74 -40 138 -36 141 4 4 230
99 502 212 272 113 504 215 517 227 51 49 31 131 -39 158 -36 14 -39 13 -545
-197 -280 -116 -513 -211 -518 -210 -6 0 -36 54 -69 119 -90 182 -214 371
-373 568 l-26 33 561 562 c387 387 566 574 577 599 23 57 20 146 -8 199 -51
96 -163 144 -267 113 -53 -15 -73 -34 -622 -581 l-566 -566 -89 70 c-170 135
-313 227 -515 333 l-126 66 209 504 c115 278 209 519 209 535 -1 50 -50 95
-104 95 -59 0 -75 -30 -291 -554 -113 -275 -207 -501 -208 -503 -2 -1 -50 13
-108 33 -206 70 -564 144 -696 144 l-43 0 0 800 c0 866 2 830 -55 898 -54 65
-165 96 -245 70z m328 -2489 c520 -56 1019 -296 1392 -669 344 -342 562 -768
652 -1267 19 -111 23 -161 23 -378 0 -217 -4 -267 -23 -378 -62 -346 -176
-635 -361 -914 -80 -120 -229 -301 -317 -384 -381 -360 -856 -581 -1374 -640
-148 -17 -503 -6 -640 20 -258 47 -511 134 -710 243 -719 394 -1173 1108
-1220 1918 -63 1099 639 2080 1703 2379 98 28 300 66 392 74 93 8 393 6 483
-4z"/>
<path d="M35684 29904 c17 -43 617 -1108 744 -1319 695 -1157 1528 -2261 2586
-3425 1119 -1233 2751 -2792 4431 -4235 2093 -1798 3483 -2850 4830 -3657 174
-104 2385 -1376 2465 -1418 24 -12 24 -12 9 6 -9 10 -409 476 -890 1034 -1155
1341 -1276 1484 -1670 1980 -753 946 -1264 1685 -1925 2781 -499 829 -687
1127 -1115 1769 -524 786 -1091 1585 -1779 2506 l-248 330 -168 116 c-2115
1451 -4248 2554 -6234 3221 -206 70 -1023 327 -1036 327 -3 0 -3 -7 0 -16z"/>
<path d="M43360 26205 c0 -3 215 -284 478 -623 1646 -2122 2494 -3319 3743
-5282 452 -711 688 -1065 983 -1470 679 -934 1412 -1809 2238 -2670 406 -424
386 -406 698 -593 865 -516 1811 -995 2660 -1347 295 -123 802 -321 807 -316
5 5 -321 642 -457 891 -983 1805 -2341 3650 -3925 5330 -270 287 -933 951
-1278 1282 -1424 1362 -3026 2703 -4537 3799 -178 129 -1198 856 -1382 986
-16 11 -28 17 -28 13z m2200 -2119 c1747 -1411 3343 -2939 4925 -4716 1458
-1638 2568 -3073 3474 -4494 84 -131 151 -240 148 -242 -2 -2 -102 32 -223 75
-677 243 -1372 526 -2269 923 l-360 159 -89 92 c-49 51 -179 193 -290 317
-1026 1145 -1920 2320 -2634 3465 -86 138 -316 518 -512 845 -822 1373 -1432
2316 -2280 3526 -108 154 -201 287 -205 295 -11 17 21 -8 315 -245z"/>
<path d="M25135 24573 c-27 -1 -162 -7 -300 -13 -718 -31 -1568 -123 -2400
-260 -2092 -344 -4877 -1133 -8005 -2267 -2154 -780 -3556 -1390 -4796 -2085
-356 -199 -2420 -1403 -2410 -1406 7 -1 568 103 1247 232 1601 305 1650 314
2074 385 1250 209 2326 321 3415 356 96 3 411 10 700 15 1130 22 1929 64 3070
165 571 51 1657 167 2140 229 l185 24 315 151 c2223 1072 4180 2333 5725 3686
209 183 845 767 845 776 0 13 -1603 24 -1805 12z"/>
<path d="M19435 19709 c-727 -101 -1296 -177 -1710 -229 -1651 -206 -3204
-336 -4805 -405 -620 -26 -996 -45 -1230 -60 -1454 -97 -3081 -367 -4595 -763
-183 -47 -196 -53 -350 -137 -677 -372 -1373 -804 -1995 -1240 -390 -274 -626
-452 -1148 -865 l-182 -145 67 -7 c345 -37 1647 -60 2237 -39 1548 55 3154
261 4766 611 2173 473 4864 1348 7210 2345 455 193 2158 962 2185 986 13 13
13 13 -450 -52z m-2116 -644 c-3 -2 -162 -65 -354 -139 -2374 -911 -4626
-1546 -7325 -2065 -1611 -309 -3105 -508 -4410 -586 -266 -15 -661 -35 -719
-35 -32 0 -26 6 120 131 375 320 871 713 1369 1088 366 275 893 659 930 677
14 7 149 40 300 73 1321 288 2688 487 3900 565 388 26 638 35 1241 46 898 16
1501 30 1779 40 933 36 1835 94 2740 174 407 36 436 38 429 31z"/>
<path d="M3677 13663 c-4 -3 -7 -991 -7 -2195 l0 -2188 1790 0 1790 0 0 465 0
465 -1310 0 -1310 0 0 1730 0 1730 -473 0 c-261 0 -477 -3 -480 -7z"/>
<path d="M26607 13663 c-4 -3 -7 -247 -7 -542 l1 -536 1705 -1652 1705 -1653
120 0 119 0 0 2180 0 2180 -480 0 -480 0 -2 -1169 -3 -1170 -1220 1184 -1220
1184 -116 0 c-64 1 -119 -2 -122 -6z"/>
<path d="M35600 13180 l0 -470 1330 0 c732 0 1330 -3 1330 -6 0 -10 -63 -99
-123 -171 -145 -177 -382 -331 -612 -398 -185 -53 -213 -55 -1102 -55 l-823 0
0 -1400 0 -1400 480 0 480 0 0 935 0 935 379 0 c299 0 405 4 503 17 67 9 136
17 152 17 28 1 55 -40 626 -949 l598 -950 561 -3 c309 -1 561 0 561 3 0 3
-324 521 -720 1151 -396 630 -720 1146 -720 1148 0 2 28 25 63 51 91 72 279
258 357 355 257 322 415 699 461 1100 12 107 8 527 -5 549 -5 8 -527 11 -1892
11 l-1884 0 0 -470z"/>
<path d="M7920 11460 l0 -2180 480 0 480 0 0 2180 0 2180 -480 0 -480 0 0
-2180z"/>
<path d="M9555 13628 c-3 -7 -4 -218 -3 -468 l3 -455 2023 -3 2022 -2 0 470 0
470 -2020 0 c-1607 0 -2022 -3 -2025 -12z"/>
<path d="M14270 13170 l0 -470 2023 2 2022 3 0 465 0 465 -2022 3 -2023 2 0
-470z"/>
<path d="M21920 13170 l0 -470 2008 2 2007 3 0 465 0 465 -2007 3 -2008 2 0
-470z"/>
<path d="M30915 13628 c-3 -7 -4 -218 -3 -468 l3 -455 2008 -3 2007 -2 0 470
0 470 -2005 0 c-1595 0 -2007 -3 -2010 -12z"/>
<path d="M44950 11460 l0 -2180 480 0 480 0 0 2180 0 2180 -480 0 -480 0 0
-2180z"/>
<path d="M46580 13170 l0 -470 2005 0 2005 0 0 470 0 470 -2005 0 -2005 0 0
-470z"/>
<path d="M52210 13633 c-338 -33 -627 -168 -860 -402 -162 -163 -264 -327
-328 -531 -45 -144 -57 -227 -56 -400 2 -360 132 -660 398 -918 191 -186 403
-299 681 -364 86 -21 121 -22 875 -27 855 -7 809 -3 912 -64 125 -73 204 -243
179 -383 -30 -162 -137 -278 -295 -320 -41 -11 -200 -14 -814 -14 -752 0 -763
0 -803 21 -100 50 -171 148 -191 260 l-10 59 -467 -2 -466 -3 -3 -33 c-5 -55
27 -250 58 -346 60 -185 155 -341 303 -493 195 -201 443 -331 721 -378 133
-22 1661 -22 1792 0 306 53 552 181 767 398 432 437 497 1118 156 1624 -199
295 -492 492 -862 579 -64 16 -163 18 -862 23 -737 6 -793 7 -840 25 -118 44
-203 125 -246 236 -30 77 -30 194 0 273 31 80 114 167 199 209 l67 33 807 3
c800 2 808 2 848 -18 95 -49 172 -157 186 -261 l7 -49 470 0 470 0 -6 99 c-11
167 -72 365 -156 509 -217 371 -574 603 -1006 652 -82 9 -1535 12 -1625 3z"/>
<path d="M41960 13619 c-575 -49 -1087 -291 -1486 -700 -411 -423 -620 -953
-601 -1529 6 -194 23 -308 68 -479 154 -581 584 -1097 1149 -1381 208 -104
415 -173 670 -222 113 -21 130 -22 1243 -25 l1127 -4 -2 1388 -3 1388 -1252 3
c-689 1 -1253 -1 -1253 -5 0 -5 98 -214 217 -465 l217 -458 558 0 558 0 0
-460 0 -460 -612 0 c-563 0 -620 2 -698 19 -344 77 -653 282 -835 556 -150
225 -213 453 -202 724 8 187 44 319 134 493 168 326 489 572 867 664 l101 24
1098 0 1097 0 0 470 0 470 -1032 -1 c-568 -1 -1076 -5 -1128 -10z"/>
<path d="M11067 12063 c-4 -3 -7 -631 -7 -1395 l0 -1388 485 0 485 0 -2 1393
-3 1392 -476 3 c-261 1 -479 -1 -482 -5z"/>
<path d="M15787 12063 c-4 -3 -7 -631 -7 -1395 l0 -1388 480 0 480 0 0 1395 0
1395 -473 0 c-261 0 -477 -3 -480 -7z"/>
<path d="M21920 10675 l0 -1395 2010 0 2010 0 0 465 0 465 -1530 0 -1530 0 0
460 0 460 1328 2 1327 3 0 465 0 465 -1807 3 -1808 2 0 -1395z"/>
<path d="M30910 10675 l0 -1395 2010 0 2010 0 0 465 0 465 -1525 0 -1525 0 0
460 0 460 1325 0 1325 0 0 470 0 470 -1810 0 -1810 0 0 -1395z"/>
<path d="M46580 10675 l0 -1395 2005 0 2005 0 0 465 0 465 -1525 0 -1525 0 0
460 0 460 1325 0 1325 0 0 470 0 470 -1805 0 -1805 0 0 -1395z"/>
<path d="M26602 10478 l3 -1193 480 0 480 0 3 731 2 731 -476 462 c-263 253
-481 461 -486 461 -4 0 -7 -535 -6 -1192z"/>
</g>
</svg>
